/* XPM */
static char * paw_small_xpm[] = {
"14 18 82 1",
" 	c None",
".	c #FEFEFE",
"+	c #FDFDFD",
"@	c #A4A4A4",
"#	c #BEBEBE",
"$	c #E3E3E3",
"%	c #767676",
"&	c #FFFFFF",
"*	c #858585",
"=	c #5E5E5E",
"-	c #E0E0E0",
";	c #9E9E9E",
">	c #292929",
",	c #0D0D0D",
"'	c #000000",
")	c #2E2E2E",
"!	c #DDDDDD",
"~	c #181818",
"{	c #717171",
"]	c #F6F6F6",
"^	c #909090",
"/	c #777777",
"(	c #131313",
"_	c #F9F9F9",
":	c #D1D1D1",
"<	c #B8B8B8",
"[	c #555555",
"}	c #414141",
"|	c #878787",
"1	c #DADADA",
"2	c #808080",
"3	c #757575",
"4	c #464646",
"5	c #222222",
"6	c #B4B4B4",
"7	c #212121",
"8	c #151515",
"9	c #D9D9D9",
"0	c #9A9A9A",
"a	c #656565",
"b	c #303030",
"c	c #0C0C0C",
"d	c #0F0F0F",
"e	c #BFBFBF",
"f	c #1B1B1B",
"g	c #7A7A7A",
"h	c #4B4B4B",
"i	c #010101",
"j	c #8B8B8B",
"k	c #BABABA",
"l	c #F0F0F0",
"m	c #F5F5F5",
"n	c #929292",
"o	c #3D3D3D",
"p	c #3B3B3B",
"q	c #444444",
"r	c #AEAEAE",
"s	c #3E3E3E",
"t	c #737373",
"u	c #4D4D4D",
"v	c #969696",
"w	c #B5B5B5",
"x	c #070707",
"y	c #030303",
"z	c #CCCCCC",
"A	c #BBBBBB",
"B	c #DEDEDE",
"C	c #161616",
"D	c #060606",
"E	c #C3C3C3",
"F	c #CECECE",
"G	c #FBFBFB",
"H	c #A8A8A8",
"I	c #CDCDCD",
"J	c #373737",
"K	c #454545",
"L	c #DFDFDF",
"M	c #AAAAAA",
"N	c #7F7F7F",
"O	c #FCFCFC",
"P	c #5A5A5A",
"Q	c #EBEBEB",
"   +    @     ",
"   #$   %     ",
"   *=- ;>$    ",
"  -,')!~'{    ",
"] ^'''/''(_ : ",
"<$['''}'''] | ",
"123'''4''56789",
"0'ab'(-cdef''g",
"h'ijkl m-n'''o",
"p''q rs%&t'''o",
"u''vwx'y0z)''0",
"AybBC'''DE+FFG",
" HIJ'''''K    ",
"  w'''''''L   ",
"  ^'''''''*   ",
"  M'''''''N   ",
"  OP''''''N   ",
"   GtssssaQ   "};
